<?xml version="1.0" encoding="UTF-8" standalone="no"?>
<svg
   xmlns:dc="http://purl.org/dc/elements/1.1/"
   xmlns:cc="http://creativecommons.org/ns#"
   xmlns:rdf="http://www.w3.org/1999/02/22-rdf-syntax-ns#"
   xmlns:svg="http://www.w3.org/2000/svg"
   xmlns="http://www.w3.org/2000/svg"
   xmlns:sodipodi="http://sodipodi.sourceforge.net/DTD/sodipodi-0.dtd"
   xmlns:inkscape="http://www.inkscape.org/namespaces/inkscape"
   inkscape:export-ydpi="768"
   inkscape:export-xdpi="768"
   inkscape:export-filename="E:\TR Design Studio Creative\Project Design\TR Creative Design\Icon Design\Project Hiring\Icon Icons\005 - Crime And Security\Send\4 - Filledline\30 - Eyewitness.png"
   sodipodi:docname="30 - Eyewitness.svg"
   inkscape:version="0.92.4 (5da689c313, 2019-01-14)"
   id="svg979"
   version="1.1"
   viewBox="0 0 16.933334 16.933333"
   height="48pt"
   width="48pt">
  <defs
     id="defs973" />
  <sodipodi:namedview
     inkscape:snap-nodes="false"
     inkscape:bbox-nodes="true"
     inkscape:snap-bbox="true"
     inkscape:document-rotation="0"
     inkscape:window-maximized="1"
     inkscape:window-y="-8"
     inkscape:window-x="-8"
     inkscape:window-height="716"
     inkscape:window-width="1366"
     units="pt"
     showgrid="false"
     inkscape:current-layer="layer1"
     inkscape:document-units="pt"
     inkscape:cy="32"
     inkscape:cx="32"
     inkscape:zoom="8.078125"
     inkscape:pageshadow="2"
     inkscape:pageopacity="0.0"
     borderopacity="1.0"
     bordercolor="#666666"
     pagecolor="#ffffff"
     id="base"
     showguides="false">
    <inkscape:grid
       id="grid1526"
       type="xygrid" />
    <sodipodi:guide
       inkscape:locked="false"
       id="guide1528"
       orientation="56.666615,0"
       position="0.97013909,15.963209" />
    <sodipodi:guide
       inkscape:locked="false"
       id="guide1530"
       orientation="0,56.666667"
       position="0.97013909,0.97016731" />
    <sodipodi:guide
       inkscape:locked="false"
       id="guide1532"
       orientation="-56.666615,0"
       position="15.963195,0.97016731" />
    <sodipodi:guide
       inkscape:locked="false"
       id="guide1534"
       orientation="0,-56.666667"
       position="15.963195,15.963209" />
  </sodipodi:namedview>
  <metadata
     id="metadata976">
    <rdf:RDF>
      <cc:Work
         rdf:about="">
        <dc:format>image/svg+xml</dc:format>
        <dc:type
           rdf:resource="http://purl.org/dc/dcmitype/StillImage" />
        <dc:title></dc:title>
      </cc:Work>
    </rdf:RDF>
  </metadata>
  <g
     transform="translate(0,-280.06668)"
     id="layer1"
     inkscape:groupmode="layer"
     inkscape:label="Layer 1">
    <g
       id="g16523"
       transform="matrix(1.2303828,0,0,1.2303828,-2.2528156,-67.178352)">
      <g
         id="g16504">
        <g
           transform="translate(-63.671464,-67.584168)"
           id="g6111">
          <path
             sodipodi:nodetypes="cccccsscccccccc"
             inkscape:connector-curvature="0"
             id="path3117"
             d="m 68.919921,356.12891 c -0.0474,0.005 -0.09261,0.0224 -0.13086,0.0508 -0.475008,0.34219 -1.522301,1.12238 -1.755862,1.30269 -0.360227,0.29206 -0.728514,0.58395 -0.728515,1.05078 v 1.42578 c -5e-6,0.96343 0.786579,1.75 1.75,1.75 h 4.234374 c 0.963421,0 1.750005,-0.78657 1.75,-1.75 v -1.42578 c -10e-7,-0.46683 -0.327892,-0.78435 -0.726562,-1.05078 -0.233822,-0.19778 -1.282939,-0.95367 -1.757812,-1.30269 -0.04537,-0.0331 -0.100096,-0.0509 -0.15625,-0.0508 h -2.453126 c -0.0085,-4.2e-4 -0.01693,-4.2e-4 -0.02539,0 z"
             style="color:#000000;font-style:normal;font-variant:normal;font-weight:normal;font-stretch:normal;font-size:medium;line-height:normal;font-family:sans-serif;font-variant-ligatures:normal;font-variant-position:normal;font-variant-caps:normal;font-variant-numeric:normal;font-variant-alternates:normal;font-feature-settings:normal;text-indent:0;text-align:start;text-decoration:none;text-decoration-line:none;text-decoration-style:solid;text-decoration-color:#000000;letter-spacing:normal;word-spacing:normal;text-transform:none;writing-mode:lr-tb;direction:ltr;text-orientation:mixed;dominant-baseline:auto;baseline-shift:baseline;text-anchor:start;white-space:normal;shape-padding:0;clip-rule:nonzero;display:inline;overflow:visible;visibility:visible;opacity:1;isolation:auto;mix-blend-mode:normal;color-interpolation:sRGB;color-interpolation-filters:linearRGB;solid-color:#000000;solid-opacity:1;vector-effect:none;fill:#3a4d5c;fill-opacity:1;fill-rule:nonzero;stroke:none;stroke-width:0.529167;stroke-linecap:round;stroke-linejoin:round;stroke-miterlimit:4;stroke-dasharray:none;stroke-dashoffset:0;stroke-opacity:1;color-rendering:auto;image-rendering:auto;shape-rendering:auto;text-rendering:auto;enable-background:accumulate" />
          <path
             inkscape:connector-curvature="0"
             id="path3365"
             d="m 68.91999,356.13543 c -0.0474,0.005 -0.09249,0.0228 -0.130742,0.0512 -0.174334,0.12559 -0.384421,0.28573 -0.644406,0.478 h 2.195217 c 0.05615,-9e-5 0.111209,0.0181 0.156577,0.0512 0.474875,0.34902 1.523696,1.10447 1.757516,1.30225 0.398672,0.26643 0.72657,0.58427 0.726573,1.0511 v 1.42575 c 2e-6,0.46794 -0.186574,0.89305 -0.487826,1.20768 0.867992,-0.1017 1.546162,-0.84242 1.546159,-1.73684 v -1.42576 c -3e-6,-0.46683 -0.327901,-0.78466 -0.726572,-1.05109 -0.233821,-0.19779 -1.282642,-0.95323 -1.757516,-1.30225 -0.04537,-0.0331 -0.100426,-0.0513 -0.156578,-0.0512 H 68.94531 c -0.0085,-5.3e-4 -0.01685,-5.3e-4 -0.02532,0 z"
             style="color:#000000;font-style:normal;font-variant:normal;font-weight:normal;font-stretch:normal;font-size:medium;line-height:normal;font-family:sans-serif;font-variant-ligatures:normal;font-variant-position:normal;font-variant-caps:normal;font-variant-numeric:normal;font-variant-alternates:normal;font-feature-settings:normal;text-indent:0;text-align:start;text-decoration:none;text-decoration-line:none;text-decoration-style:solid;text-decoration-color:#000000;letter-spacing:normal;word-spacing:normal;text-transform:none;writing-mode:lr-tb;direction:ltr;text-orientation:mixed;dominant-baseline:auto;baseline-shift:baseline;text-anchor:start;white-space:normal;shape-padding:0;clip-rule:nonzero;display:inline;overflow:visible;visibility:visible;opacity:1;isolation:auto;mix-blend-mode:normal;color-interpolation:sRGB;color-interpolation-filters:linearRGB;solid-color:#000000;solid-opacity:1;vector-effect:none;fill:#143441;fill-opacity:1;fill-rule:nonzero;stroke:none;stroke-width:0.529167;stroke-linecap:round;stroke-linejoin:round;stroke-miterlimit:4;stroke-dasharray:none;stroke-dashoffset:0;stroke-opacity:1;color-rendering:auto;image-rendering:auto;shape-rendering:auto;text-rendering:auto;enable-background:accumulate" />
          <path
             inkscape:connector-curvature="0"
             id="path3121"
             d="m 68.919921,356.12891 a 0.26460995,0.26460995 0 0 0 -0.169922,0.4414 l 1.226562,1.34766 a 0.26460995,0.26460995 0 0 0 0.390626,0 l 1.226562,-1.34766 a 0.26460995,0.26460995 0 0 0 -0.195312,-0.4414 h -2.453126 a 0.26460995,0.26460995 0 0 0 -0.02539,0 z"
             style="color:#000000;font-style:normal;font-variant:normal;font-weight:normal;font-stretch:normal;font-size:medium;line-height:normal;font-family:sans-serif;font-variant-ligatures:normal;font-variant-position:normal;font-variant-caps:normal;font-variant-numeric:normal;font-variant-alternates:normal;font-feature-settings:normal;text-indent:0;text-align:start;text-decoration:none;text-decoration-line:none;text-decoration-style:solid;text-decoration-color:#000000;letter-spacing:normal;word-spacing:normal;text-transform:none;writing-mode:lr-tb;direction:ltr;text-orientation:mixed;dominant-baseline:auto;baseline-shift:baseline;text-anchor:start;white-space:normal;shape-padding:0;clip-rule:nonzero;display:inline;overflow:visible;visibility:visible;opacity:1;isolation:auto;mix-blend-mode:normal;color-interpolation:sRGB;color-interpolation-filters:linearRGB;solid-color:#000000;solid-opacity:1;vector-effect:none;fill:#2276bc;fill-opacity:1;fill-rule:nonzero;stroke:none;stroke-width:0.529167;stroke-linecap:round;stroke-linejoin:round;stroke-miterlimit:4;stroke-dasharray:none;stroke-dashoffset:0;stroke-opacity:1;color-rendering:auto;image-rendering:auto;shape-rendering:auto;text-rendering:auto;enable-background:accumulate" />
          <path
             inkscape:connector-curvature="0"
             id="path3125"
             d="m 70.171874,351.67188 c -1.455708,1.3e-4 -2.640814,1.18491 -2.640625,2.64062 1.29e-4,1.45548 1.18514,2.64245 2.640625,2.64258 0.886531,-4e-4 1.714622,-0.44575 2.203125,-1.18555 a 0.26460847,0.26460847 0 0 0 0.04297,-0.14648 l 0.002,-2.61914 a 0.26460847,0.26460847 0 0 0 -0.04498,-0.14649 c -0.488747,-0.73974 -1.316502,-1.18545 -2.203124,-1.18554 z"
             style="color:#000000;font-style:normal;font-variant:normal;font-weight:normal;font-stretch:normal;font-size:medium;line-height:normal;font-family:sans-serif;font-variant-ligatures:normal;font-variant-position:normal;font-variant-caps:normal;font-variant-numeric:normal;font-variant-alternates:normal;font-feature-settings:normal;text-indent:0;text-align:start;text-decoration:none;text-decoration-line:none;text-decoration-style:solid;text-decoration-color:#000000;letter-spacing:normal;word-spacing:normal;text-transform:none;writing-mode:lr-tb;direction:ltr;text-orientation:mixed;dominant-baseline:auto;baseline-shift:baseline;text-anchor:start;white-space:normal;shape-padding:0;clip-rule:nonzero;display:inline;overflow:visible;visibility:visible;opacity:1;isolation:auto;mix-blend-mode:normal;color-interpolation:sRGB;color-interpolation-filters:linearRGB;solid-color:#000000;solid-opacity:1;vector-effect:none;fill:#f8c09d;fill-opacity:1;fill-rule:nonzero;stroke:none;stroke-width:0.52916402;stroke-linecap:round;stroke-linejoin:round;stroke-miterlimit:4;stroke-dasharray:none;stroke-dashoffset:0;stroke-opacity:1;color-rendering:auto;image-rendering:auto;shape-rendering:auto;text-rendering:auto;enable-background:accumulate" />
          <path
             inkscape:connector-curvature="0"
             id="path3332"
             d="m 70.172045,351.67188 c -0.862626,8e-5 -1.627703,0.41796 -2.109949,1.05989 0.441389,-0.33155 0.987698,-0.53067 1.580782,-0.53072 0.886622,9e-5 1.714217,0.44572 2.202966,1.18546 a 0.26460847,0.26460847 0 0 1 0.04496,0.14624 l -0.0021,2.61948 a 0.26460847,0.26460847 0 0 1 -0.04289,0.14624 c -0.03013,0.0456 -0.06502,0.0869 -0.09767,0.13023 0.24189,-0.18026 0.455989,-0.40066 0.626835,-0.65939 a 0.26460847,0.26460847 0 0 0 0.04289,-0.14625 l 0.0021,-2.61948 a 0.26460847,0.26460847 0 0 0 -0.04496,-0.14624 c -0.488749,-0.73974 -1.316345,-1.18537 -2.202966,-1.18546 z"
             style="color:#000000;font-style:normal;font-variant:normal;font-weight:normal;font-stretch:normal;font-size:medium;line-height:normal;font-family:sans-serif;font-variant-ligatures:normal;font-variant-position:normal;font-variant-caps:normal;font-variant-numeric:normal;font-variant-alternates:normal;font-feature-settings:normal;text-indent:0;text-align:start;text-decoration:none;text-decoration-line:none;text-decoration-style:solid;text-decoration-color:#000000;letter-spacing:normal;word-spacing:normal;text-transform:none;writing-mode:lr-tb;direction:ltr;text-orientation:mixed;dominant-baseline:auto;baseline-shift:baseline;text-anchor:start;white-space:normal;shape-padding:0;clip-rule:nonzero;display:inline;overflow:visible;visibility:visible;opacity:1;isolation:auto;mix-blend-mode:normal;color-interpolation:sRGB;color-interpolation-filters:linearRGB;solid-color:#000000;solid-opacity:1;vector-effect:none;fill:#dc9c7c;fill-opacity:1;fill-rule:nonzero;stroke:none;stroke-width:0.52916402;stroke-linecap:round;stroke-linejoin:round;stroke-miterlimit:4;stroke-dasharray:none;stroke-dashoffset:0;stroke-opacity:1;color-rendering:auto;image-rendering:auto;shape-rendering:auto;text-rendering:auto;enable-background:accumulate" />
          <path
             inkscape:connector-curvature="0"
             id="path3337"
             d="m 71.744457,352.1956 c -1.128156,0.71126 -1.711007,1.63246 -1.711007,1.63246 h 0.0016 c -0.182867,0.28868 -0.182867,0.68232 0,0.97099 h -0.0016 c 0,0 0.583419,0.92067 1.712039,1.63143 0.242882,-0.18057 0.458013,-0.40136 0.62942,-0.66094 a 0.26460847,0.26460847 0 0 0 0.04289,-0.14624 l 0.0021,-2.61948 a 0.26460847,0.26460847 0 0 0 -0.04496,-0.14625 c -0.171757,-0.25996 -0.38712,-0.48121 -0.630452,-0.66197 z"
             style="color:#000000;font-style:normal;font-variant:normal;font-weight:normal;font-stretch:normal;font-size:medium;line-height:normal;font-family:sans-serif;font-variant-ligatures:normal;font-variant-position:normal;font-variant-caps:normal;font-variant-numeric:normal;font-variant-alternates:normal;font-feature-settings:normal;text-indent:0;text-align:start;text-decoration:none;text-decoration-line:none;text-decoration-style:solid;text-decoration-color:#000000;letter-spacing:normal;word-spacing:normal;text-transform:none;writing-mode:lr-tb;direction:ltr;text-orientation:mixed;dominant-baseline:auto;baseline-shift:baseline;text-anchor:start;white-space:normal;shape-padding:0;clip-rule:nonzero;display:inline;overflow:visible;visibility:visible;opacity:1;isolation:auto;mix-blend-mode:normal;color-interpolation:sRGB;color-interpolation-filters:linearRGB;solid-color:#000000;solid-opacity:1;vector-effect:none;fill:#dc9c7c;fill-opacity:1;fill-rule:nonzero;stroke:none;stroke-width:0.529167;stroke-linecap:round;stroke-linejoin:round;stroke-miterlimit:4;stroke-dasharray:none;stroke-dashoffset:0;stroke-opacity:1;color-rendering:auto;image-rendering:auto;shape-rendering:auto;text-rendering:auto;enable-background:accumulate" />
          <path
             inkscape:connector-curvature="0"
             id="path3131"
             d="m 74.505858,352.02734 c -2.576611,0 -3.927734,2.14454 -3.927734,2.14454 a 0.26460995,0.26460995 0 0 0 0,0.2832 c 0,0 1.351121,2.14258 3.927734,2.14258 2.576614,0 3.929688,-2.14258 3.929688,-2.14258 a 0.26460995,0.26460995 0 0 0 0,-0.2832 c 0,0 -1.353077,-2.14454 -3.929688,-2.14454 z"
             style="color:#000000;font-style:normal;font-variant:normal;font-weight:normal;font-stretch:normal;font-size:medium;line-height:normal;font-family:sans-serif;font-variant-ligatures:normal;font-variant-position:normal;font-variant-caps:normal;font-variant-numeric:normal;font-variant-alternates:normal;font-feature-settings:normal;text-indent:0;text-align:start;text-decoration:none;text-decoration-line:none;text-decoration-style:solid;text-decoration-color:#000000;letter-spacing:normal;word-spacing:normal;text-transform:none;writing-mode:lr-tb;direction:ltr;text-orientation:mixed;dominant-baseline:auto;baseline-shift:baseline;text-anchor:start;white-space:normal;shape-padding:0;clip-rule:nonzero;display:inline;overflow:visible;visibility:visible;opacity:1;isolation:auto;mix-blend-mode:normal;color-interpolation:sRGB;color-interpolation-filters:linearRGB;solid-color:#000000;solid-opacity:1;vector-effect:none;fill:#f5f6e8;fill-opacity:1;fill-rule:nonzero;stroke:none;stroke-width:0.529167;stroke-linecap:round;stroke-linejoin:round;stroke-miterlimit:4;stroke-dasharray:none;stroke-dashoffset:0;stroke-opacity:1;color-rendering:auto;image-rendering:auto;shape-rendering:auto;text-rendering:auto;enable-background:accumulate" />
          <path
             inkscape:connector-curvature="0"
             id="path3135"
             d="m 74.505858,352.71289 c -0.873615,0 -1.585937,0.71428 -1.585937,1.58789 0,0.87362 0.712322,1.58594 1.585937,1.58594 0.873616,0 1.587891,-0.71232 1.587891,-1.58594 0,-0.87361 -0.714275,-1.58789 -1.587891,-1.58789 z"
             style="color:#000000;font-style:normal;font-variant:normal;font-weight:normal;font-stretch:normal;font-size:medium;line-height:normal;font-family:sans-serif;font-variant-ligatures:normal;font-variant-position:normal;font-variant-caps:normal;font-variant-numeric:normal;font-variant-alternates:normal;font-feature-settings:normal;text-indent:0;text-align:start;text-decoration:none;text-decoration-line:none;text-decoration-style:solid;text-decoration-color:#000000;letter-spacing:normal;word-spacing:normal;text-transform:none;writing-mode:lr-tb;direction:ltr;text-orientation:mixed;dominant-baseline:auto;baseline-shift:baseline;text-anchor:start;white-space:normal;shape-padding:0;clip-rule:nonzero;display:inline;overflow:visible;visibility:visible;opacity:1;isolation:auto;mix-blend-mode:normal;color-interpolation:sRGB;color-interpolation-filters:linearRGB;solid-color:#000000;solid-opacity:1;vector-effect:none;fill:#2bb3cd;fill-opacity:1;fill-rule:nonzero;stroke:none;stroke-width:0.52916598;stroke-linecap:round;stroke-linejoin:round;stroke-miterlimit:4;stroke-dasharray:none;stroke-dashoffset:0;stroke-opacity:1;color-rendering:auto;image-rendering:auto;shape-rendering:auto;text-rendering:auto;enable-background:accumulate" />
          <path
             inkscape:connector-curvature="0"
             id="path3143"
             d="m 70.173827,357.47461 a 0.26460995,0.26460995 0 0 0 -0.238281,0.14648 l -1.058594,2.11719 a 0.26460995,0.26460995 0 0 0 0.01758,0.26563 l 1.056641,1.58593 a 0.26460995,0.26460995 0 0 0 0.441406,0 l 1.058594,-1.58593 a 0.26460995,0.26460995 0 0 0 0.01563,-0.26563 l -1.058593,-2.11719 a 0.26460995,0.26460995 0 0 0 -0.234375,-0.14648 z"
             style="color:#000000;font-style:normal;font-variant:normal;font-weight:normal;font-stretch:normal;font-size:medium;line-height:normal;font-family:sans-serif;font-variant-ligatures:normal;font-variant-position:normal;font-variant-caps:normal;font-variant-numeric:normal;font-variant-alternates:normal;font-feature-settings:normal;text-indent:0;text-align:start;text-decoration:none;text-decoration-line:none;text-decoration-style:solid;text-decoration-color:#000000;letter-spacing:normal;word-spacing:normal;text-transform:none;writing-mode:lr-tb;direction:ltr;text-orientation:mixed;dominant-baseline:auto;baseline-shift:baseline;text-anchor:start;white-space:normal;shape-padding:0;clip-rule:nonzero;display:inline;overflow:visible;visibility:visible;opacity:1;isolation:auto;mix-blend-mode:normal;color-interpolation:sRGB;color-interpolation-filters:linearRGB;solid-color:#000000;solid-opacity:1;vector-effect:none;fill:#2393a8;fill-opacity:1;fill-rule:nonzero;stroke:none;stroke-width:0.529167;stroke-linecap:round;stroke-linejoin:round;stroke-miterlimit:4;stroke-dasharray:none;stroke-dashoffset:0;stroke-opacity:1;color-rendering:auto;image-rendering:auto;shape-rendering:auto;text-rendering:auto;enable-background:accumulate" />
          <path
             inkscape:connector-curvature="0"
             id="path3358"
             d="m 69.907381,357.6684 -1.030428,2.06034 a 0.26460995,0.26460995 0 0 0 0.01757,0.26562 l 1.012856,1.52032 1.014926,-1.52032 a 0.26460995,0.26460995 0 0 0 0.01551,-0.26562 z"
             style="color:#000000;font-style:normal;font-variant:normal;font-weight:normal;font-stretch:normal;font-size:medium;line-height:normal;font-family:sans-serif;font-variant-ligatures:normal;font-variant-position:normal;font-variant-caps:normal;font-variant-numeric:normal;font-variant-alternates:normal;font-feature-settings:normal;text-indent:0;text-align:start;text-decoration:none;text-decoration-line:none;text-decoration-style:solid;text-decoration-color:#000000;letter-spacing:normal;word-spacing:normal;text-transform:none;writing-mode:lr-tb;direction:ltr;text-orientation:mixed;dominant-baseline:auto;baseline-shift:baseline;text-anchor:start;white-space:normal;shape-padding:0;clip-rule:nonzero;display:inline;overflow:visible;visibility:visible;opacity:1;isolation:auto;mix-blend-mode:normal;color-interpolation:sRGB;color-interpolation-filters:linearRGB;solid-color:#000000;solid-opacity:1;vector-effect:none;fill:#2bb3cd;fill-opacity:1;fill-rule:nonzero;stroke:none;stroke-width:0.529167;stroke-linecap:round;stroke-linejoin:round;stroke-miterlimit:4;stroke-dasharray:none;stroke-dashoffset:0;stroke-opacity:1;color-rendering:auto;image-rendering:auto;shape-rendering:auto;text-rendering:auto;enable-background:accumulate" />
          <path
             inkscape:connector-curvature="0"
             id="path3343"
             d="m 74.506071,352.02734 c -1.842217,0 -3.045547,1.08815 -3.588927,1.71308 0.657738,-0.57074 1.681607,-1.18391 3.059761,-1.18391 2.576613,0 3.929479,2.14457 3.929479,2.14457 a 0.26460995,0.26460995 0 0 1 0,0.28319 c 0,0 -0.12103,0.18029 -0.335898,0.42736 0.570066,-0.49469 0.865063,-0.95653 0.865063,-0.95653 a 0.26460995,0.26460995 0 0 0 0,-0.28319 c 0,0 -1.352864,-2.14457 -3.929478,-2.14457 z"
             style="color:#000000;font-style:normal;font-variant:normal;font-weight:normal;font-stretch:normal;font-size:medium;line-height:normal;font-family:sans-serif;font-variant-ligatures:normal;font-variant-position:normal;font-variant-caps:normal;font-variant-numeric:normal;font-variant-alternates:normal;font-feature-settings:normal;text-indent:0;text-align:start;text-decoration:none;text-decoration-line:none;text-decoration-style:solid;text-decoration-color:#000000;letter-spacing:normal;word-spacing:normal;text-transform:none;writing-mode:lr-tb;direction:ltr;text-orientation:mixed;dominant-baseline:auto;baseline-shift:baseline;text-anchor:start;white-space:normal;shape-padding:0;clip-rule:nonzero;display:inline;overflow:visible;visibility:visible;opacity:1;isolation:auto;mix-blend-mode:normal;color-interpolation:sRGB;color-interpolation-filters:linearRGB;solid-color:#000000;solid-opacity:1;vector-effect:none;fill:#dbdbcf;fill-opacity:1;fill-rule:nonzero;stroke:none;stroke-width:0.529167;stroke-linecap:round;stroke-linejoin:round;stroke-miterlimit:4;stroke-dasharray:none;stroke-dashoffset:0;stroke-opacity:1;color-rendering:auto;image-rendering:auto;shape-rendering:auto;text-rendering:auto;enable-background:accumulate" />
          <path
             inkscape:connector-curvature="0"
             id="path3348"
             d="m 74.505733,352.71289 c -0.571238,0 -1.072076,0.30658 -1.351338,0.76223 0.240191,-0.14693 0.521123,-0.23306 0.822171,-0.23306 0.873615,0 1.588016,0.7144 1.588016,1.58801 0,0.30105 -0.08664,0.58198 -0.233576,0.82217 0.45598,-0.27918 0.762743,-0.77984 0.762743,-1.35133 0,-0.87361 -0.714401,-1.58802 -1.588016,-1.58802 z"
             style="color:#000000;font-style:normal;font-variant:normal;font-weight:normal;font-stretch:normal;font-size:medium;line-height:normal;font-family:sans-serif;font-variant-ligatures:normal;font-variant-position:normal;font-variant-caps:normal;font-variant-numeric:normal;font-variant-alternates:normal;font-feature-settings:normal;text-indent:0;text-align:start;text-decoration:none;text-decoration-line:none;text-decoration-style:solid;text-decoration-color:#000000;letter-spacing:normal;word-spacing:normal;text-transform:none;writing-mode:lr-tb;direction:ltr;text-orientation:mixed;dominant-baseline:auto;baseline-shift:baseline;text-anchor:start;white-space:normal;shape-padding:0;clip-rule:nonzero;display:inline;overflow:visible;visibility:visible;opacity:1;isolation:auto;mix-blend-mode:normal;color-interpolation:sRGB;color-interpolation-filters:linearRGB;solid-color:#000000;solid-opacity:1;vector-effect:none;fill:#2393a8;fill-opacity:1;fill-rule:nonzero;stroke:none;stroke-width:0.52916598;stroke-linecap:round;stroke-linejoin:round;stroke-miterlimit:4;stroke-dasharray:none;stroke-dashoffset:0;stroke-opacity:1;color-rendering:auto;image-rendering:auto;shape-rendering:auto;text-rendering:auto;enable-background:accumulate" />
          <path
             inkscape:connector-curvature="0"
             id="path108176"
             d="m 74.505858,353.24219 c 0.587634,0 1.058594,0.47096 1.058594,1.05859 0,0.58763 -0.47096,1.05664 -1.058594,1.05664 -0.587633,0 -1.05664,-0.46901 -1.05664,-1.05664 0,-0.58763 0.469007,-1.05859 1.05664,-1.05859 z"
             style="color:#000000;font-style:normal;font-variant:normal;font-weight:normal;font-stretch:normal;font-size:medium;line-height:normal;font-family:sans-serif;font-variant-ligatures:normal;font-variant-position:normal;font-variant-caps:normal;font-variant-numeric:normal;font-variant-alternates:normal;font-feature-settings:normal;text-indent:0;text-align:start;text-decoration:none;text-decoration-line:none;text-decoration-style:solid;text-decoration-color:#000000;letter-spacing:normal;word-spacing:normal;text-transform:none;writing-mode:lr-tb;direction:ltr;text-orientation:mixed;dominant-baseline:auto;baseline-shift:baseline;text-anchor:start;white-space:normal;shape-padding:0;clip-rule:nonzero;display:inline;overflow:visible;visibility:visible;opacity:1;isolation:auto;mix-blend-mode:normal;color-interpolation:sRGB;color-interpolation-filters:linearRGB;solid-color:#000000;solid-opacity:1;vector-effect:none;fill:#3a4d5c;fill-opacity:1;fill-rule:nonzero;stroke:none;stroke-width:0.52916598;stroke-linecap:round;stroke-linejoin:round;stroke-miterlimit:4;stroke-dasharray:none;stroke-dashoffset:0;stroke-opacity:1;color-rendering:auto;image-rendering:auto;shape-rendering:auto;text-rendering:auto;enable-background:accumulate" />
          <path
             inkscape:connector-curvature="0"
             id="path3353"
             d="m 74.506123,353.24219 c -0.431657,0 -0.797457,0.25488 -0.962215,0.6227 0.132151,-0.0591 0.277915,-0.0935 0.433048,-0.0935 0.587635,0 1.058334,0.4707 1.058334,1.05833 0,0.15513 -0.03441,0.3009 -0.09354,0.43305 0.367827,-0.16476 0.622702,-0.53056 0.622702,-0.96222 0,-0.58762 -0.470699,-1.05833 -1.058333,-1.05833 z"
             style="color:#000000;font-style:normal;font-variant:normal;font-weight:normal;font-stretch:normal;font-size:medium;line-height:normal;font-family:sans-serif;font-variant-ligatures:normal;font-variant-position:normal;font-variant-caps:normal;font-variant-numeric:normal;font-variant-alternates:normal;font-feature-settings:normal;text-indent:0;text-align:start;text-decoration:none;text-decoration-line:none;text-decoration-style:solid;text-decoration-color:#000000;letter-spacing:normal;word-spacing:normal;text-transform:none;writing-mode:lr-tb;direction:ltr;text-orientation:mixed;dominant-baseline:auto;baseline-shift:baseline;text-anchor:start;white-space:normal;shape-padding:0;clip-rule:nonzero;display:inline;overflow:visible;visibility:visible;opacity:1;isolation:auto;mix-blend-mode:normal;color-interpolation:sRGB;color-interpolation-filters:linearRGB;solid-color:#000000;solid-opacity:1;vector-effect:none;fill:#143441;fill-opacity:1;fill-rule:nonzero;stroke:none;stroke-width:0.52916598;stroke-linecap:round;stroke-linejoin:round;stroke-miterlimit:4;stroke-dasharray:none;stroke-dashoffset:0;stroke-opacity:1;color-rendering:auto;image-rendering:auto;shape-rendering:auto;text-rendering:auto;enable-background:accumulate" />
        </g>
        <path
           style="color:#000000;font-style:normal;font-variant:normal;font-weight:normal;font-stretch:normal;font-size:medium;line-height:normal;font-family:sans-serif;font-variant-ligatures:normal;font-variant-position:normal;font-variant-caps:normal;font-variant-numeric:normal;font-variant-alternates:normal;font-feature-settings:normal;text-indent:0;text-align:start;text-decoration:none;text-decoration-line:none;text-decoration-style:solid;text-decoration-color:#000000;letter-spacing:normal;word-spacing:normal;text-transform:none;writing-mode:lr-tb;direction:ltr;text-orientation:mixed;dominant-baseline:auto;baseline-shift:baseline;text-anchor:start;white-space:normal;shape-padding:0;clip-rule:nonzero;display:inline;overflow:visible;visibility:visible;opacity:1;isolation:auto;mix-blend-mode:normal;color-interpolation:sRGB;color-interpolation-filters:linearRGB;solid-color:#000000;solid-opacity:1;vector-effect:none;fill:#000000;fill-opacity:1;fill-rule:nonzero;stroke:none;stroke-width:0.52916402;stroke-linecap:round;stroke-linejoin:round;stroke-miterlimit:4;stroke-dasharray:none;stroke-dashoffset:0;stroke-opacity:1;color-rendering:auto;image-rendering:auto;shape-rendering:auto;text-rendering:auto;enable-background:accumulate"
           d="m 6.499818,284.08797 c -1.4557079,1.3e-4 -2.6408559,1.18444 -2.6406659,2.64015 7.4e-5,0.83326 0.389578,1.57747 0.99477,2.0624 -0.523179,0.3827 -1.294341,0.95412 -1.49293,1.10743 -0.375039,0.30889 -0.7286381,0.64215 -0.7286381,1.10898 v 1.36787 c -3e-6,0.47422 0.1912801,0.90479 0.4997101,1.2206 h -0.235643 a 0.26460995,0.26460995 0 0 0 -0.02532,0 0.2651438,0.2651438 0 0 0 0.02532,0.52968 h 7.4274519 a 0.2648413,0.2648413 0 1 0 0,-0.52968 H 9.8670543 c 0.3084487,-0.31581 0.4997127,-0.74636 0.4997107,-1.2206 v -1.36167 c 0,-0.46683 -0.321279,-0.79819 -0.7265698,-1.11518 -0.202084,-0.17093 -0.9714629,-0.72827 -1.4944831,-1.11001 0.1478651,-0.11823 0.284366,-0.25099 0.405143,-0.40049 0.601872,0.35137 1.3628452,0.62632 2.2830659,0.62632 2.576614,0 3.929475,-2.14303 3.929475,-2.14303 a 0.26460995,0.26460995 0 0 0 0,-0.28318 c 0,0 -1.352864,-2.14457 -3.929475,-2.14457 -0.9207239,0 -1.6820778,0.27538 -2.2840999,0.62735 -0.4983379,-0.61601 -1.2487939,-0.98229 -2.0500031,-0.98237 z m -3.6033969,0.27337 a 0.26460995,0.26460995 0 0 0 -0.2640671,0.26355 v 0.76739 a 0.2648413,0.2648413 0 1 0 0.5296821,0 v -0.50178 h 0.529167 a 0.26465001,0.26465001 0 1 0 0,-0.52916 z m 10.8220779,0 a 0.26500291,0.26500291 0 0 0 0.02739,0.52916 h 0.527097 v 0.50178 a 0.264843,0.264843 0 1 0 0.529685,0 v -0.76739 a 0.26460995,0.26460995 0 0 0 -0.264067,-0.26355 h -0.792715 a 0.26460995,0.26460995 0 0 0 -0.02739,0 z m -7.218681,0.2558 c 0.6236211,7e-5 1.2092843,0.27475 1.6076542,0.7431 -0.7921469,0.58258 -1.2014791,1.22732 -1.2014791,1.22732 a 0.26460995,0.26460995 0 0 0 0,0.28318 c 0,0 0.4093322,0.64424 1.2014791,1.22629 -0.3982832,0.4685 -0.9842421,0.74436 -1.6076542,0.74465 -1.1695398,-1.1e-4 -2.1113959,-0.94402 -2.1114989,-2.11356 -1.53e-4,-1.16971 0.9417789,-2.11087 2.1114989,-2.11098 z m 4.334103,0.35553 c 2.112849,0 3.184864,1.51295 3.349665,1.75545 -0.163684,0.241 -1.235556,1.75596 -3.349665,1.75596 -2.1131129,0 -3.18303,-1.51377 -3.3476008,-1.75596 0.1656821,-0.24369 1.2357439,-1.75545 3.3476008,-1.75545 z m 0,0.15606 c -0.8736167,0 -1.5859499,0.71441 -1.5859499,1.58802 0,0.87362 0.7123332,1.58595 1.5859499,1.58595 0.873614,0 1.5875,-0.71233 1.5875,-1.58595 0,-0.87361 -0.713886,-1.58802 -1.5875,-1.58802 z m 0,0.52917 c 0.587634,0 1.058333,0.47122 1.058333,1.05885 0,0.58763 -0.470699,1.05678 -1.058333,1.05678 -0.587634,0 -1.0567827,-0.46915 -1.0567827,-1.05678 0,-0.58763 0.4691487,-1.05885 1.0567827,-1.05885 z m -7.9395689,2.1115 a 0.26460995,0.26460995 0 0 0 -0.02739,0.002 0.26460995,0.26460995 0 0 0 -0.234611,0.26768 v 0.79271 a 0.26460995,0.26460995 0 0 0 0.264067,0.26562 h 0.794782 a 0.26465001,0.26465001 0 1 0 0,-0.52916 h -0.529167 v -0.52918 A 0.26460995,0.26460995 0 0 0 2.894349,287.76932 Z m 11.6406349,0 a 0.26460995,0.26460995 0 0 0 -0.02739,0.002 0.26460995,0.26460995 0 0 0 -0.234612,0.26768 v 0.52917 h -0.527097 a 0.26465001,0.26465001 0 1 0 0,0.52916 h 0.792715 a 0.26460995,0.26460995 0 0 0 0.264068,-0.26562 v -0.79271 a 0.26460995,0.26460995 0 0 0 -0.267685,-0.26975 z m -6.7737459,1.39268 1.6293571,1.19734 c 0.2243579,0.16808 0.441539,0.41853 0.447,0.65371 v 1.36167 c 2.9e-6,0.67744 -0.5431581,1.2206 -1.220597,1.2206 H 6.993843 l 0.7849661,-1.17564 a 0.26460995,0.26460995 0 0 0 0.016031,-0.26562 l -0.977718,-1.95492 z m -2.522845,10e-4 0.9441291,1.03663 -0.9777181,1.9544 a 0.26460995,0.26460995 0 0 0 0.01757,0.26561 l 0.7834161,1.17563 h -1.623158 c -0.677436,0 -1.2206,-0.54315 -1.220597,-1.22059 v -1.33894 c 0,-0.30205 0.224634,-0.49431 0.447003,-0.67645 z m 0.8774639,0.17673 c 0.1256752,0.0185 0.2532592,0.031 0.383958,0.031 0.1299351,-5e-5 0.257932,-0.0123 0.3844722,-0.031 l -0.3844722,0.42168 z m 0.383958,1.40611 0.7539602,1.50792 -0.7539602,1.1281 -0.7518929,-1.1281 z"
           id="path92780"
           inkscape:connector-curvature="0" />
      </g>
    </g>
  </g>
</svg>
